<svg id="Layer_1" xmlns="http://www.w3.org/2000/svg" viewBox="0 0 199.3 55.4"><style>.st0{fill:#cb2128}</style><ellipse class="st0" cx="55.9" cy="33.8" rx="9.1" ry="3.8"/><path class="st0" d="M102.3 24.8h9.8s-.2-9.4-23.2-9.4-22.7 12-22.7 12-.2 10.2 22.7 10.2S112 27.4 112 27.4h-9.7s-.5 5.2-11.7 5.2-11.8-5.4-11.8-5.8.2-5.3 11.6-5.3 11.9 3.3 11.9 3.3z"/><ellipse class="st0" cx="90.8" cy="26.9" rx="9.2" ry="3.2"/><path class="st0" d="M54 17.6H18.7v6h11.2v13.2h12.4V23.6H54z"/><path class="st0" d="M99.6 0C44.5 0-.2 12.4-.2 27.7s44.7 27.7 99.7 27.7c55.1 0 99.7-12.4 99.7-27.7S154.6 0 99.6 0zm79.1 38.8c-2 .8-4.6 1.3-7.4 1.3-2.8 0-5.4-.5-7.4-1.3-1.4-.6-2.3-1.3-3-2-.5.5-1.1 1-1.8 1.3-1.4.7-2.9.8-4 .8H132v-1.7c-.6.6-1.4 1.1-2.6 1.6-2 .8-4.6 1.3-7.4 1.3-2.8 0-5.4-.5-7.4-1.3-3-1.3-3.9-3.1-4.1-4.3-2.5 2.2-7.1 3.8-11.6 4.7L86.1 49.8H46.5v-6.2h37.2l4.2-3.5c-9.6-.1-16.3-2-20.4-5.6-.2 1.3-1.1 3-4.1 4.3-2 .8-4.6 1.3-7.4 1.3-2.8 0-5.4-.5-7.4-1.3-2.2-.9-3.3-2.1-3.8-3.2v3.8H27.4V26.1H16.2v-11h40.3v11H44.7V32c.5-1.1 1.6-2.3 3.8-3.2 2-.8 4.6-1.3 7.4-1.3 2.8 0 5.4.5 7.4 1.3l.6.3c-.2-.8-.3-1.4-.3-1.7 0-.5 0-4.3 3.6-7.9 4.2-4.4 11.5-6.6 21.6-6.6 10.1 0 17.5 1.8 21.8 5.2.3.3.6.5.9.8l.7.9 8.1-6.7-3.1-2.6 12-1.5-.9 10.6-3.2-2.5-10.5 8.9v1.2h-.1v.2c0 .1 0 .7-.3 1.6.1-.1.3-.1.4-.2 2-.8 4.6-1.3 7.4-1.3 2.8 0 5.4.5 7.4 1.3 1.1.5 2 1 2.6 1.6v-.7h8.9c-1-.8-2-1.5-2.7-2.1-.6-.4-1.1-.8-1.6-1.2-1.8-1.4-3-2.7-3.5-3.9-.4-.9-.4-1.7-.3-2.3.1-1.5.8-2.8 2.1-3.8 1-.8 2.3-1.4 4-1.9 2.5-.7 5.9-1 10-1 6.5 0 12.6.8 12.9.8l2.2.3v10.9l-2.8-.3c-2.3-.3-4.2-.4-5.7-.4h-.4c.1.1.2.1.3.2.4.3.9.5 1.4.8 1.1.6 2.3 1.2 3.4 2.3.6.6 1.1 1.3 1.4 2 .6-.5 1.3-.9 2.2-1.3 2-.8 4.6-1.3 7.4-1.3 2.8 0 5.4.5 7.4 1.3 3.6 1.5 4.2 3.8 4.2 5 .1 1.2-.5 3.4-4.1 5z"/><path class="st0" d="M171.3 30c-4.6 0-8.4 1.4-9 3.3 0 .3 0 .6-.1.9.4 2 4.3 3.5 9.1 3.5 5 0 9.1-1.7 9.1-3.8 0-2.2-4.1-3.9-9.1-3.9zM154 26.9c-1.7-1.3-6.3-4.7 1.6-4.7 1.5 0 3.5.1 6 .4v-5.9s-6.2-.8-12.6-.8c-6.8 0-13.7.9-13.7 4.7 0 0-.7 1.1 2.9 3.9 3.6 2.8 11.3 7.7 4.7 7.7h-8.3v4.3h19.7s5.4 0 5.4-2.5v-1.2c-.1-3.8-3.7-4.4-5.7-5.9z"/><ellipse class="st0" cx="122.1" cy="33.8" rx="9.1" ry="3.8"/></svg>