<svg id="Layer_1" xmlns="http://www.w3.org/2000/svg" viewBox="0 0 132 36.7"><style>.st0{fill:#fff}</style><ellipse class="st0" cx="37.1" cy="22.4" rx="6" ry="2.5"/><path class="st0" d="M67.9 16.4h6.5s-.1-6.2-15.4-6.2-15 7.9-15 7.9-.1 6.8 15 6.8 15.3-6.8 15.3-6.8h-6.4s-.3 3.4-7.7 3.4-7.8-3.6-7.8-3.8c0-.3.1-3.5 7.7-3.5s7.8 2.2 7.8 2.2z"/><ellipse class="st0" cx="60.2" cy="17.8" rx="6.1" ry="2.1"/><path class="st0" d="M35.9 11.7H12.5v3.9h7.4v8.8h8.2v-8.8h7.8z"/><path class="st0" d="M66.1 0C29.6 0 0 8.2 0 18.3s29.6 18.3 66 18.3c36.5 0 66-8.2 66-18.3S102.5 0 66.1 0zm52.3 25.7c-1.3.5-3 .9-4.9.9-1.9 0-3.6-.3-4.9-.9-.9-.4-1.5-.9-2-1.3-.3.3-.7.7-1.2.9-.9.5-1.9.5-2.6.5H87.4v-1.1c-.4.4-.9.7-1.7 1.1-1.3.5-3 .9-4.9.9-1.9 0-3.6-.3-4.9-.9-2-.9-2.6-2.1-2.7-2.8-1.7 1.5-4.7 2.5-7.7 3.1l-8.5 7H30.9V29h24.6l2.8-2.3c-6.4-.1-10.8-1.3-13.5-3.7-.1.9-.7 2-2.7 2.8-1.3.5-3 .9-4.9.9-1.9 0-3.6-.3-4.9-.9-1.5-.6-2.2-1.4-2.5-2.1v2.6H18.2v-8.8h-7.5V10h26.8v7.4h-7.9v3.9c.3-.7 1.1-1.5 2.5-2.1 1.3-.5 3-.9 4.9-.9s3.6.3 4.9.9c.1.1.3.1.4.2-.1-.5-.2-.9-.2-1.1 0-.3 0-2.8 2.4-5.2 2.8-2.9 7.6-4.4 14.3-4.4 6.7 0 11.6 1.2 14.4 3.4.2.2.4.3.6.5l.5.6 5.4-4.4-2-1.8 7.9-1-.6 7-2.1-1.7-7 5.9v.8h-.1v.1c0 .1 0 .5-.2 1.1.1-.1.2-.1.3-.1 1.3-.5 3-.9 4.9-.9s3.6.3 4.9.9c.7.3 1.3.7 1.7 1.1v-.5h5.9c-.7-.5-1.3-1-1.8-1.4-.4-.3-.7-.5-1.1-.8-1.2-.9-2-1.8-2.3-2.6-.1-.6-.1-1.1-.1-1.5.1-1 .5-1.9 1.4-2.5.7-.5 1.5-.9 2.6-1.3 1.7-.5 3.9-.7 6.6-.7 4.3 0 8.3.5 8.5.5l1.5.2v7.3l-1.9-.2c-1.5-.2-2.8-.3-3.8-.3h-.3c.1.1.1.1.2.1.3.2.6.3.9.5.7.4 1.5.8 2.3 1.5.4.4.7.9.9 1.3.4-.3.9-.6 1.5-.9 1.3-.5 3-.9 4.9-.9 1.9 0 3.6.3 4.9.9 2.4 1 2.8 2.5 2.8 3.3.2 1-.2 2.4-2.6 3.5z"/><path class="st0" d="M113.5 19.9c-3 0-5.6.9-6 2.2 0 .2 0 .4-.1.6.3 1.3 2.8 2.3 6 2.3 3.3 0 6-1.1 6-2.5.2-1.5-2.6-2.6-5.9-2.6zm-11.4-2.1c-1.1-.9-4.2-3.1 1.1-3.1 1 0 2.3.1 4 .3v-3.9s-4.1-.5-8.3-.5c-4.5 0-9.1.6-9.1 3.1 0 0-.5.7 1.9 2.6s7.5 5.1 3.1 5.1h-5.5v2.8h13s3.6 0 3.6-1.7v-.8c-.1-2.5-2.5-2.9-3.8-3.9z"/><ellipse class="st0" cx="81" cy="22.4" rx="6" ry="2.5"/></svg>