<svg id="Layer_1" xmlns="http://www.w3.org/2000/svg" viewBox="0 0 180 180"><style>.st0{fill:#fff}.st1{fill:#718b2c}.st2{fill:#e0481d}.st3{fill:#4e5cc3}.st4{fill:#dca817}</style><circle class="st0" cx="90" cy="90" r="57.5"/><path class="st1" d="M92.8 64.3h33.6V88s-17.5 12.4-26.6 12.4c0 0-10.3.9-13.7-5.2 0 0-1.9-5.9 3.7-5.5 0 0-.5 5.9 7.3 5.7s11.1-6.1 11.1-10.7-.7-6.7-4.3-10.1c-3.5-3.4-10.4-8.8-11.1-10.3z"/><path class="st2" d="M53.5 64.4h35.3s4.6 4.3 9.3 7.8c4.7 3.6 8 6.5 8 11s-1.6 6.6-3.9 8.4c-2.3 1.8-7.5 1.9-9.5-.6 0 0 5.9.6 5.9-3.7s-2.9-7-7.4-8.5-11.6-2.1-18.5.8-12.1 7-15.2 8.1c-2.6.9-3.7.9-3.7.9l-.3-24.2z"/><path class="st3" d="M53.5 91.4s3.1-.3 9.1-4.2c5.9-3.9 12.1-7.7 19.5-7.7s12.2 1.6 14 4.7c0 0 1.5 2.6-1.1 4.4 0 0-1.8-4.4-9.5-4.4S74.2 91 74.2 94.4c0 3.4.4 7.2 5.4 11.6s9.3 7.6 9.3 9.4H53.4l.1-24z"/><path class="st4" d="M126.6 91.5v24.3H92.7s-.6-1.7-6.5-6.3S76 101.4 76 95.8s4.9-11.9 13.7-8.3c0 0-6.4.8-6.4 5.3 0 4.6 6 9.2 12.9 9.4 6.8.3 12-.4 19.7-5.2s9.1-5.5 10.7-5.5z"/></svg>